<svg width="57" height="18" viewBox="0 0 57 18" fill="none" xmlns="http://www.w3.org/2000/svg">
<path d="M12.672 14.048V17H0.36C0.376 16.248 0.472 15.56 0.648 14.936C0.84 14.296 1.056 13.76 1.296 13.328C1.552 12.896 1.936 12.44 2.448 11.96C2.96 11.48 3.408 11.096 3.792 10.808C4.192 10.52 4.768 10.12 5.52 9.608C5.616 9.544 5.872 9.376 6.288 9.104C6.704 8.832 6.992 8.64 7.152 8.528C7.312 8.416 7.552 8.224 7.872 7.952C8.192 7.664 8.416 7.416 8.544 7.208C8.688 7 8.824 6.744 8.952 6.44C9.08 6.12 9.144 5.792 9.144 5.456C9.144 4.72 8.92 4.136 8.472 3.704C8.04 3.256 7.464 3.032 6.744 3.032C5.016 3.032 4.104 4.248 4.008 6.68H0.744V6.32C0.744 4.416 1.296 2.904 2.4 1.784C3.504 0.647999 4.992 0.079999 6.864 0.079999C8.56 0.079999 9.936 0.559999 10.992 1.52C12.048 2.464 12.576 3.696 12.576 5.216C12.576 6.448 12.296 7.432 11.736 8.168C11.176 8.904 10.296 9.68 9.096 10.496C8.936 10.608 8.64 10.808 8.208 11.096C7.776 11.368 7.432 11.592 7.176 11.768C6.936 11.944 6.64 12.168 6.288 12.44C5.936 12.712 5.632 12.984 5.376 13.256C5.12 13.512 4.904 13.776 4.728 14.048H12.672ZM21.2319 0.103999C22.1599 0.103999 22.9839 0.279999 23.7039 0.631999C24.4399 0.983999 25.0319 1.44 25.4799 2C25.9279 2.56 26.2959 3.224 26.5839 3.992C26.8879 4.76 27.0959 5.528 27.2079 6.296C27.3199 7.064 27.3759 7.872 27.3759 8.72C27.3759 11.392 26.8319 13.488 25.7439 15.008C24.6559 16.528 23.1599 17.288 21.2559 17.288C19.3039 17.288 17.7759 16.536 16.6719 15.032C15.5839 13.512 15.0399 11.408 15.0399 8.72C15.0399 7.648 15.1439 6.64 15.3519 5.696C15.5599 4.736 15.8879 3.824 16.3359 2.96C16.7839 2.08 17.4239 1.384 18.2559 0.871999C19.1039 0.359999 20.0959 0.103999 21.2319 0.103999ZM21.2079 2.912C20.7599 2.912 20.3679 3.008 20.0319 3.2C19.6959 3.392 19.4239 3.68 19.2159 4.064C19.0239 4.432 18.8639 4.792 18.7359 5.144C18.6239 5.48 18.5439 5.928 18.4959 6.488C18.4479 7.032 18.4159 7.448 18.3999 7.736C18.3999 8.024 18.3999 8.408 18.3999 8.888C18.3999 12.648 19.3439 14.528 21.2319 14.528C23.0879 14.528 24.0159 12.592 24.0159 8.72C24.0159 6.72 23.7919 5.256 23.3439 4.328C22.8959 3.384 22.1839 2.912 21.2079 2.912ZM38.5759 0.199999V17H34.9519V6.08H30.8719V3.56H31.3039C33.8479 3.56 35.3359 2.44 35.7679 0.199999H38.5759ZM44.3038 12.776H47.5438C47.8158 14.056 48.5838 14.696 49.8478 14.696C50.4398 14.696 50.9358 14.536 51.3358 14.216C51.7518 13.896 52.0638 13.448 52.2718 12.872C52.4798 12.296 52.6318 11.776 52.7278 11.312C52.8238 10.832 52.8958 10.28 52.9438 9.656C52.0318 10.952 50.8318 11.6 49.3438 11.6C47.7918 11.6 46.5118 11.08 45.5038 10.04C44.5118 9 44.0158 7.672 44.0158 6.056C44.0158 4.344 44.5918 2.92 45.7438 1.784C46.8958 0.631999 48.3358 0.0559993 50.0638 0.0559993C51.1838 0.0559993 52.1598 0.295999 52.9918 0.775999C53.8398 1.24 54.4958 1.872 54.9598 2.672C55.4238 3.472 55.7678 4.336 55.9918 5.264C56.2158 6.192 56.3278 7.184 56.3278 8.24C56.3278 9.328 56.2158 10.376 55.9918 11.384C55.7678 12.392 55.4158 13.352 54.9358 14.264C54.4718 15.176 53.7998 15.912 52.9198 16.472C52.0398 17.016 51.0158 17.288 49.8478 17.288C48.3118 17.288 47.0478 16.88 46.0558 16.064C45.0638 15.248 44.4798 14.152 44.3038 12.776ZM49.9918 2.864C49.2398 2.864 48.6078 3.16 48.0958 3.752C47.5998 4.328 47.3518 5.056 47.3518 5.936C47.3518 6.832 47.5998 7.568 48.0958 8.144C48.5918 8.72 49.2318 9.008 50.0158 9.008C50.7838 9.008 51.4158 8.72 51.9118 8.144C52.4238 7.568 52.6798 6.84 52.6798 5.96C52.6798 5.08 52.4238 4.344 51.9118 3.752C51.3998 3.16 50.7598 2.864 49.9918 2.864Z" fill="white"/>
</svg>
