<svg width="57" height="18" viewBox="0 0 57 18" fill="none" xmlns="http://www.w3.org/2000/svg">
<path d="M12.7001 14.048V17H0.388126C0.404126 16.248 0.500126 15.56 0.676126 14.936C0.868126 14.296 1.08413 13.76 1.32413 13.328C1.58013 12.896 1.96413 12.44 2.47613 11.96C2.98813 11.48 3.43613 11.096 3.82013 10.808C4.22013 10.52 4.79613 10.12 5.54813 9.608C5.64413 9.544 5.90013 9.376 6.31613 9.104C6.73213 8.832 7.02013 8.64 7.18013 8.528C7.34013 8.416 7.58013 8.224 7.90013 7.952C8.22013 7.664 8.44413 7.416 8.57213 7.208C8.71613 7 8.85213 6.744 8.98013 6.44C9.10813 6.12 9.17213 5.792 9.17213 5.456C9.17213 4.72 8.94813 4.136 8.50013 3.704C8.06813 3.256 7.49213 3.032 6.77213 3.032C5.04413 3.032 4.13213 4.248 4.03613 6.68H0.772126V6.32C0.772126 4.416 1.32413 2.904 2.42813 1.784C3.53213 0.647999 5.02013 0.079999 6.89213 0.079999C8.58813 0.079999 9.96413 0.559999 11.0201 1.52C12.0761 2.464 12.6041 3.696 12.6041 5.216C12.6041 6.448 12.3241 7.432 11.7641 8.168C11.2041 8.904 10.3241 9.68 9.12413 10.496C8.96413 10.608 8.66813 10.808 8.23613 11.096C7.80413 11.368 7.46013 11.592 7.20413 11.768C6.96413 11.944 6.66813 12.168 6.31613 12.44C5.96413 12.712 5.66013 12.984 5.40413 13.256C5.14813 13.512 4.93213 13.776 4.75613 14.048H12.7001ZM21.2601 0.103999C22.1881 0.103999 23.0121 0.279999 23.7321 0.631999C24.4681 0.983999 25.0601 1.44 25.5081 2C25.9561 2.56 26.3241 3.224 26.6121 3.992C26.9161 4.76 27.1241 5.528 27.2361 6.296C27.3481 7.064 27.4041 7.872 27.4041 8.72C27.4041 11.392 26.8601 13.488 25.7721 15.008C24.6841 16.528 23.1881 17.288 21.2841 17.288C19.3321 17.288 17.8041 16.536 16.7001 15.032C15.6121 13.512 15.0681 11.408 15.0681 8.72C15.0681 7.648 15.1721 6.64 15.3801 5.696C15.5881 4.736 15.9161 3.824 16.3641 2.96C16.8121 2.08 17.4521 1.384 18.2841 0.871999C19.1321 0.359999 20.1241 0.103999 21.2601 0.103999ZM21.2361 2.912C20.7881 2.912 20.3961 3.008 20.0601 3.2C19.7241 3.392 19.4521 3.68 19.2441 4.064C19.0521 4.432 18.8921 4.792 18.7641 5.144C18.6521 5.48 18.5721 5.928 18.5241 6.488C18.4761 7.032 18.4441 7.448 18.4281 7.736C18.4281 8.024 18.4281 8.408 18.4281 8.888C18.4281 12.648 19.3721 14.528 21.2601 14.528C23.1161 14.528 24.0441 12.592 24.0441 8.72C24.0441 6.72 23.8201 5.256 23.3721 4.328C22.9241 3.384 22.2121 2.912 21.2361 2.912ZM41.772 14.048V17H29.46C29.476 16.248 29.572 15.56 29.748 14.936C29.94 14.296 30.156 13.76 30.396 13.328C30.652 12.896 31.036 12.44 31.548 11.96C32.06 11.48 32.508 11.096 32.892 10.808C33.292 10.52 33.868 10.12 34.62 9.608C34.716 9.544 34.972 9.376 35.388 9.104C35.804 8.832 36.092 8.64 36.252 8.528C36.412 8.416 36.652 8.224 36.972 7.952C37.292 7.664 37.516 7.416 37.644 7.208C37.788 7 37.924 6.744 38.052 6.44C38.18 6.12 38.244 5.792 38.244 5.456C38.244 4.72 38.02 4.136 37.572 3.704C37.14 3.256 36.564 3.032 35.844 3.032C34.116 3.032 33.204 4.248 33.108 6.68H29.844V6.32C29.844 4.416 30.396 2.904 31.5 1.784C32.604 0.647999 34.092 0.079999 35.964 0.079999C37.66 0.079999 39.036 0.559999 40.092 1.52C41.148 2.464 41.676 3.696 41.676 5.216C41.676 6.448 41.396 7.432 40.836 8.168C40.276 8.904 39.396 9.68 38.196 10.496C38.036 10.608 37.74 10.808 37.308 11.096C36.876 11.368 36.532 11.592 36.276 11.768C36.036 11.944 35.74 12.168 35.388 12.44C35.036 12.712 34.732 12.984 34.476 13.256C34.22 13.512 34.004 13.776 33.828 14.048H41.772ZM50.3319 0.103999C51.2599 0.103999 52.0839 0.279999 52.8039 0.631999C53.5399 0.983999 54.1319 1.44 54.5799 2C55.0279 2.56 55.3959 3.224 55.6839 3.992C55.9879 4.76 56.1959 5.528 56.3079 6.296C56.4199 7.064 56.4759 7.872 56.4759 8.72C56.4759 11.392 55.9319 13.488 54.8439 15.008C53.7559 16.528 52.2599 17.288 50.3559 17.288C48.4039 17.288 46.8759 16.536 45.7719 15.032C44.6839 13.512 44.1399 11.408 44.1399 8.72C44.1399 7.648 44.2439 6.64 44.4519 5.696C44.6599 4.736 44.9879 3.824 45.4359 2.96C45.8839 2.08 46.5239 1.384 47.3559 0.871999C48.2039 0.359999 49.1959 0.103999 50.3319 0.103999ZM50.3079 2.912C49.8599 2.912 49.4679 3.008 49.1319 3.2C48.7959 3.392 48.5239 3.68 48.3159 4.064C48.1239 4.432 47.9639 4.792 47.8359 5.144C47.7239 5.48 47.6439 5.928 47.5959 6.488C47.5479 7.032 47.5159 7.448 47.4999 7.736C47.4999 8.024 47.4999 8.408 47.4999 8.888C47.4999 12.648 48.4439 14.528 50.3319 14.528C52.1879 14.528 53.1159 12.592 53.1159 8.72C53.1159 6.72 52.8919 5.256 52.4439 4.328C51.9959 3.384 51.2839 2.912 50.3079 2.912Z" fill="white"/>
</svg>
