<svg width="57" height="18" viewBox="0 0 57 18" fill="none" xmlns="http://www.w3.org/2000/svg">
<path d="M12.7001 14.048V17H0.388126C0.404126 16.248 0.500126 15.56 0.676126 14.936C0.868126 14.296 1.08413 13.76 1.32413 13.328C1.58013 12.896 1.96413 12.44 2.47613 11.96C2.98813 11.48 3.43613 11.096 3.82013 10.808C4.22013 10.52 4.79613 10.12 5.54813 9.608C5.64413 9.544 5.90013 9.376 6.31613 9.104C6.73213 8.832 7.02013 8.64 7.18013 8.528C7.34013 8.416 7.58013 8.224 7.90013 7.952C8.22013 7.664 8.44413 7.416 8.57213 7.208C8.71613 7 8.85213 6.744 8.98013 6.44C9.10813 6.12 9.17213 5.792 9.17213 5.456C9.17213 4.72 8.94813 4.136 8.50013 3.704C8.06813 3.256 7.49213 3.032 6.77213 3.032C5.04413 3.032 4.13213 4.248 4.03613 6.68H0.772126V6.32C0.772126 4.416 1.32413 2.904 2.42813 1.784C3.53213 0.647999 5.02013 0.079999 6.89213 0.079999C8.58813 0.079999 9.96413 0.559999 11.0201 1.52C12.0761 2.464 12.6041 3.696 12.6041 5.216C12.6041 6.448 12.3241 7.432 11.7641 8.168C11.2041 8.904 10.3241 9.68 9.12413 10.496C8.96413 10.608 8.66813 10.808 8.23613 11.096C7.80413 11.368 7.46013 11.592 7.20413 11.768C6.96413 11.944 6.66813 12.168 6.31613 12.44C5.96413 12.712 5.66013 12.984 5.40413 13.256C5.14813 13.512 4.93213 13.776 4.75613 14.048H12.7001ZM21.2601 0.103999C22.1881 0.103999 23.0121 0.279999 23.7321 0.631999C24.4681 0.983999 25.0601 1.44 25.5081 2C25.9561 2.56 26.3241 3.224 26.6121 3.992C26.9161 4.76 27.1241 5.528 27.2361 6.296C27.3481 7.064 27.4041 7.872 27.4041 8.72C27.4041 11.392 26.8601 13.488 25.7721 15.008C24.6841 16.528 23.1881 17.288 21.2841 17.288C19.3321 17.288 17.8041 16.536 16.7001 15.032C15.6121 13.512 15.0681 11.408 15.0681 8.72C15.0681 7.648 15.1721 6.64 15.3801 5.696C15.5881 4.736 15.9161 3.824 16.3641 2.96C16.8121 2.08 17.4521 1.384 18.2841 0.871999C19.1321 0.359999 20.1241 0.103999 21.2601 0.103999ZM21.2361 2.912C20.7881 2.912 20.3961 3.008 20.0601 3.2C19.7241 3.392 19.4521 3.68 19.2441 4.064C19.0521 4.432 18.8921 4.792 18.7641 5.144C18.6521 5.48 18.5721 5.928 18.5241 6.488C18.4761 7.032 18.4441 7.448 18.4281 7.736C18.4281 8.024 18.4281 8.408 18.4281 8.888C18.4281 12.648 19.3721 14.528 21.2601 14.528C23.1161 14.528 24.0441 12.592 24.0441 8.72C24.0441 6.72 23.8201 5.256 23.3721 4.328C22.9241 3.384 22.2121 2.912 21.2361 2.912ZM41.772 14.048V17H29.46C29.476 16.248 29.572 15.56 29.748 14.936C29.94 14.296 30.156 13.76 30.396 13.328C30.652 12.896 31.036 12.44 31.548 11.96C32.06 11.48 32.508 11.096 32.892 10.808C33.292 10.52 33.868 10.12 34.62 9.608C34.716 9.544 34.972 9.376 35.388 9.104C35.804 8.832 36.092 8.64 36.252 8.528C36.412 8.416 36.652 8.224 36.972 7.952C37.292 7.664 37.516 7.416 37.644 7.208C37.788 7 37.924 6.744 38.052 6.44C38.18 6.12 38.244 5.792 38.244 5.456C38.244 4.72 38.02 4.136 37.572 3.704C37.14 3.256 36.564 3.032 35.844 3.032C34.116 3.032 33.204 4.248 33.108 6.68H29.844V6.32C29.844 4.416 30.396 2.904 31.5 1.784C32.604 0.647999 34.092 0.079999 35.964 0.079999C37.66 0.079999 39.036 0.559999 40.092 1.52C41.148 2.464 41.676 3.696 41.676 5.216C41.676 6.448 41.396 7.432 40.836 8.168C40.276 8.904 39.396 9.68 38.196 10.496C38.036 10.608 37.74 10.808 37.308 11.096C36.876 11.368 36.532 11.592 36.276 11.768C36.036 11.944 35.74 12.168 35.388 12.44C35.036 12.712 34.732 12.984 34.476 13.256C34.22 13.512 34.004 13.776 33.828 14.048H41.772ZM56.3079 14.048V17H43.9959C44.0119 16.248 44.1079 15.56 44.2839 14.936C44.4759 14.296 44.6919 13.76 44.9319 13.328C45.1879 12.896 45.5719 12.44 46.0839 11.96C46.5959 11.48 47.0439 11.096 47.4279 10.808C47.8279 10.52 48.4039 10.12 49.1559 9.608C49.2519 9.544 49.5079 9.376 49.9239 9.104C50.3399 8.832 50.6279 8.64 50.7879 8.528C50.9479 8.416 51.1879 8.224 51.5079 7.952C51.8279 7.664 52.0519 7.416 52.1799 7.208C52.3239 7 52.4599 6.744 52.5879 6.44C52.7159 6.12 52.7799 5.792 52.7799 5.456C52.7799 4.72 52.5559 4.136 52.1079 3.704C51.6759 3.256 51.0999 3.032 50.3799 3.032C48.6519 3.032 47.7399 4.248 47.6439 6.68H44.3799V6.32C44.3799 4.416 44.9319 2.904 46.0359 1.784C47.1399 0.647999 48.6279 0.079999 50.4999 0.079999C52.1959 0.079999 53.5719 0.559999 54.6279 1.52C55.6839 2.464 56.2119 3.696 56.2119 5.216C56.2119 6.448 55.9319 7.432 55.3719 8.168C54.8119 8.904 53.9319 9.68 52.7319 10.496C52.5719 10.608 52.2759 10.808 51.8439 11.096C51.4119 11.368 51.0679 11.592 50.8119 11.768C50.5719 11.944 50.2759 12.168 49.9239 12.44C49.5719 12.712 49.2679 12.984 49.0119 13.256C48.7559 13.512 48.5399 13.776 48.3639 14.048H56.3079Z" fill="white"/>
</svg>
